<svg width="50" height="50" viewBox="0 0 50 50" fill="none" xmlns="http://www.w3.org/2000/svg">
<path d="M10.4166 43.75H39.5832C41.2408 43.75 42.8305 43.0915 44.0027 41.9194C45.1748 40.7473 45.8332 39.1576 45.8332 37.5V12.5C45.8332 10.8424 45.1748 9.25269 44.0027 8.08058C42.8305 6.90848 41.2408 6.25 39.5832 6.25H10.4166C8.75896 6.25 7.16925 6.90848 5.99714 8.08058C4.82504 9.25269 4.16656 10.8424 4.16656 12.5V37.5C4.16656 39.1576 4.82504 40.7473 5.99714 41.9194C7.16925 43.0915 8.75896 43.75 10.4166 43.75ZM41.6666 27.0833H31.2499V22.9167H41.6666V27.0833ZM8.33323 12.5C8.33323 11.9475 8.55272 11.4176 8.94342 11.0269C9.33412 10.6362 9.86403 10.4167 10.4166 10.4167H39.5832C40.1358 10.4167 40.6657 10.6362 41.0564 11.0269C41.4471 11.4176 41.6666 11.9475 41.6666 12.5V18.75H29.1666C28.614 18.75 28.0841 18.9695 27.6934 19.3602C27.3027 19.7509 27.0832 20.2808 27.0832 20.8333V29.1667C27.0832 29.7192 27.3027 30.2491 27.6934 30.6398C28.0841 31.0305 28.614 31.25 29.1666 31.25H41.6666V37.5C41.6666 38.0525 41.4471 38.5824 41.0564 38.9731C40.6657 39.3638 40.1358 39.5833 39.5832 39.5833H10.4166C9.86403 39.5833 9.33412 39.3638 8.94342 38.9731C8.55272 38.5824 8.33323 38.0525 8.33323 37.5V12.5Z" fill="#A3A3A3"/>
</svg>
