<svg width="50" height="50" viewBox="0 0 50 50" fill="none" xmlns="http://www.w3.org/2000/svg">
<path d="M12.5 43.7503H37.5C39.1576 43.7503 40.7473 43.0919 41.9194 41.9197C43.0915 40.7476 43.75 39.1579 43.75 37.5003V12.5003C43.75 10.8427 43.0915 9.25301 41.9194 8.08091C40.7473 6.90881 39.1576 6.25033 37.5 6.25033H35.4167C35.4167 5.69779 35.1972 5.16789 34.8065 4.77719C34.4158 4.38649 33.8859 4.16699 33.3333 4.16699C32.7808 4.16699 32.2509 4.38649 31.8602 4.77719C31.4695 5.16789 31.25 5.69779 31.25 6.25033H18.75C18.75 5.69779 18.5305 5.16789 18.1398 4.77719C17.7491 4.38649 17.2192 4.16699 16.6667 4.16699C16.1141 4.16699 15.5842 4.38649 15.1935 4.77719C14.8028 5.16789 14.5833 5.69779 14.5833 6.25033H12.5C10.8424 6.25033 9.25269 6.90881 8.08058 8.08091C6.90848 9.25301 6.25 10.8427 6.25 12.5003V37.5003C6.25 39.1579 6.90848 40.7476 8.08058 41.9197C9.25269 43.0919 10.8424 43.7503 12.5 43.7503ZM10.4167 12.5003C10.4167 11.9478 10.6362 11.4179 11.0269 11.0272C11.4176 10.6365 11.9475 10.417 12.5 10.417H14.5833V12.5003C14.5833 13.0529 14.8028 13.5828 15.1935 13.9735C15.5842 14.3642 16.1141 14.5837 16.6667 14.5837C17.2192 14.5837 17.7491 14.3642 18.1398 13.9735C18.5305 13.5828 18.75 13.0529 18.75 12.5003V10.417H31.25V12.5003C31.25 13.0529 31.4695 13.5828 31.8602 13.9735C32.2509 14.3642 32.7808 14.5837 33.3333 14.5837C33.8859 14.5837 34.4158 14.3642 34.8065 13.9735C35.1972 13.5828 35.4167 13.0529 35.4167 12.5003V10.417H37.5C38.0525 10.417 38.5824 10.6365 38.9731 11.0272C39.3638 11.4179 39.5833 11.9478 39.5833 12.5003V18.7503H10.4167V12.5003ZM10.4167 22.917H39.5833V37.5003C39.5833 38.0529 39.3638 38.5828 38.9731 38.9735C38.5824 39.3642 38.0525 39.5837 37.5 39.5837H12.5C11.9475 39.5837 11.4176 39.3642 11.0269 38.9735C10.6362 38.5828 10.4167 38.0529 10.4167 37.5003V22.917Z" fill="#A3A3A3"/>
</svg>
