<svg width="50" height="50" viewBox="0 0 50 50" fill="none" xmlns="http://www.w3.org/2000/svg">
<path d="M32.4369 24.3125C34.2195 22.7914 35.4929 20.7603 36.0854 18.4931C36.6779 16.2258 36.561 13.8314 35.7504 11.6326C34.9398 9.43388 33.4746 7.53652 31.5522 6.19636C29.6298 4.85621 27.3428 4.1377 24.9994 4.1377C22.6559 4.1377 20.3689 4.85621 18.4465 6.19636C16.5241 7.53652 15.0589 9.43388 14.2483 11.6326C13.4377 13.8314 13.3208 16.2258 13.9133 18.4931C14.5058 20.7603 15.7792 22.7914 17.5619 24.3125C13.6249 25.8171 10.2369 28.4805 7.84522 31.9508C5.45354 35.4212 4.17067 39.5353 4.16602 43.75C4.16602 44.3025 4.38551 44.8325 4.77621 45.2232C5.16691 45.6139 5.69681 45.8333 6.24935 45.8333C6.80188 45.8333 7.33179 45.6139 7.72249 45.2232C8.11319 44.8325 8.33268 44.3025 8.33268 43.75C8.33268 39.3297 10.0886 35.0905 13.2142 31.9649C16.3398 28.8393 20.5791 27.0833 24.9994 27.0833C29.4196 27.0833 33.6589 28.8393 36.7845 31.9649C39.9101 35.0905 41.666 39.3297 41.666 43.75C41.666 44.3025 41.8855 44.8325 42.2762 45.2232C42.6669 45.6139 43.1968 45.8333 43.7494 45.8333C44.3019 45.8333 44.8318 45.6139 45.2225 45.2232C45.6132 44.8325 45.8327 44.3025 45.8327 43.75C45.828 39.5353 44.5452 35.4212 42.1535 31.9508C39.7618 28.4805 36.3738 25.8171 32.4369 24.3125ZM24.9994 22.9167C23.5572 22.9167 22.1474 22.489 20.9483 21.6878C19.7492 20.8866 18.8146 19.7478 18.2627 18.4154C17.7108 17.083 17.5664 15.6169 17.8478 14.2025C18.1291 12.788 18.8236 11.4888 19.8434 10.469C20.8631 9.44926 22.1624 8.7548 23.5768 8.47345C24.9913 8.1921 26.4574 8.3365 27.7898 8.88839C29.1221 9.44028 30.2609 10.3749 31.0622 11.574C31.8634 12.7731 32.291 14.1829 32.291 15.625C32.291 17.5589 31.5228 19.4135 30.1553 20.781C28.7879 22.1484 26.9332 22.9167 24.9994 22.9167Z" fill="#A3A3A3"/>
</svg>
