<svg width="50" height="50" viewBox="0 0 50 50" fill="none" xmlns="http://www.w3.org/2000/svg">
<path d="M25 18.75H29.1667C29.7192 18.75 30.2491 18.5305 30.6398 18.1398C31.0305 17.7491 31.25 17.2192 31.25 16.6667C31.25 16.1141 31.0305 15.5842 30.6398 15.1935C30.2491 14.8028 29.7192 14.5833 29.1667 14.5833H27.0833C27.0833 14.0308 26.8638 13.5009 26.4731 13.1102C26.0824 12.7195 25.5525 12.5 25 12.5C24.4475 12.5 23.9176 12.7195 23.5269 13.1102C23.1362 13.5009 22.9167 14.0308 22.9167 14.5833V14.9583C21.5388 15.4583 20.3805 16.4266 19.6442 17.694C18.9079 18.9614 18.6405 20.4473 18.8888 21.8919C19.137 23.3365 19.885 24.6479 21.0021 25.5968C22.1192 26.5458 23.5343 27.072 25 27.0833C25.5525 27.0833 26.0824 27.3028 26.4731 27.6935C26.8638 28.0842 27.0833 28.6141 27.0833 29.1667C27.0833 29.7192 26.8638 30.2491 26.4731 30.6398C26.0824 31.0305 25.5525 31.25 25 31.25H20.8333C20.2808 31.25 19.7509 31.4695 19.3602 31.8602C18.9695 32.2509 18.75 32.7808 18.75 33.3333C18.75 33.8859 18.9695 34.4158 19.3602 34.8065C19.7509 35.1972 20.2808 35.4167 20.8333 35.4167H22.9167C22.9167 35.9692 23.1362 36.4991 23.5269 36.8898C23.9176 37.2805 24.4475 37.5 25 37.5C25.5525 37.5 26.0824 37.2805 26.4731 36.8898C26.8638 36.4991 27.0833 35.9692 27.0833 35.4167V35.0417C28.4612 34.5417 29.6195 33.5734 30.3558 32.306C31.0921 31.0386 31.3595 29.5527 31.1112 28.1081C30.863 26.6635 30.115 25.3521 28.9979 24.4032C27.8808 23.4542 26.4657 22.928 25 22.9167C24.4475 22.9167 23.9176 22.6972 23.5269 22.3065C23.1362 21.9158 22.9167 21.3859 22.9167 20.8333C22.9167 20.2808 23.1362 19.7509 23.5269 19.3602C23.9176 18.9695 24.4475 18.75 25 18.75Z" fill="#A3A3A3"/>
<path d="M24.9994 4.16699C20.8789 4.16699 16.851 5.38885 13.425 7.67804C9.99895 9.96724 7.32869 13.221 5.75187 17.0278C4.17504 20.8345 3.76247 25.0234 4.56633 29.0647C5.37019 33.106 7.35437 36.8181 10.268 39.7317C13.1816 42.6453 16.8937 44.6295 20.935 45.4334C24.9762 46.2372 29.1651 45.8246 32.9719 44.2478C36.7787 42.671 40.0324 40.0007 42.3216 36.5747C44.6108 33.1487 45.8327 29.1208 45.8327 25.0003C45.8327 22.2645 45.2938 19.5554 44.2468 17.0278C43.1999 14.5001 41.6653 12.2035 39.7307 10.2689C37.7962 8.33438 35.4995 6.79981 32.9719 5.75284C30.4443 4.70586 27.7352 4.16699 24.9994 4.16699ZM24.9994 41.667C21.703 41.667 18.4807 40.6895 15.7399 38.8582C12.999 37.0268 10.8628 34.4238 9.60137 31.3784C8.33991 28.3329 8.00985 24.9818 8.65294 21.7488C9.29602 18.5158 10.8834 15.5461 13.2142 13.2152C15.5451 10.8843 18.5148 9.29699 21.7479 8.6539C24.9809 8.01082 28.332 8.34087 31.3774 9.60233C34.4228 10.8638 37.0258 13 38.8572 15.7408C40.6885 18.4816 41.666 21.704 41.666 25.0003C41.666 29.4206 39.9101 33.6598 36.7845 36.7854C33.6589 39.911 29.4196 41.667 24.9994 41.667Z" fill="#A3A3A3"/>
</svg>
