<svg width="50" height="50" viewBox="0 0 50 50" fill="none" xmlns="http://www.w3.org/2000/svg">
<path d="M39.5827 6.25H10.416C6.87435 6.25 4.16602 8.95833 4.16602 12.5V37.5C4.16602 41.0417 6.87435 43.75 10.416 43.75H39.5827C43.1244 43.75 45.8327 41.0417 45.8327 37.5V12.5C45.8327 8.95833 43.1244 6.25 39.5827 6.25ZM39.5827 10.4167C39.9994 10.4167 40.2077 10.625 40.416 10.625L24.9994 26.25L9.37435 10.625C9.79102 10.625 9.99935 10.4167 10.416 10.4167H39.5827ZM41.666 37.5C41.666 38.75 40.8327 39.5833 39.5827 39.5833H10.416C9.16602 39.5833 8.33268 38.75 8.33268 37.5V15.4167L23.541 30.625C24.3744 31.4583 25.6243 31.4583 26.4577 30.625L41.666 15.4167V37.5Z" fill="#A3A3A3"/>
</svg>
