<svg width="50" height="50" viewBox="0 0 50 50" fill="none" xmlns="http://www.w3.org/2000/svg">
<path d="M29.1666 6.25003C28.8924 6.24845 28.6207 6.301 28.3668 6.40468C28.113 6.50835 27.8821 6.66112 27.6875 6.8542L24.1458 10.4167H6.24996C5.69743 10.4167 5.16752 10.6362 4.77682 11.0269C4.38612 11.4176 4.16663 11.9475 4.16663 12.5V41.6667C4.16663 42.2192 4.38612 42.7491 4.77682 43.1398C5.16752 43.5305 5.69743 43.75 6.24996 43.75H43.75C44.3025 43.75 44.8324 43.5305 45.2231 43.1398C45.6138 42.7491 45.8333 42.2192 45.8333 41.6667V8.33337C45.8333 7.78083 45.6138 7.25093 45.2231 6.86023C44.8324 6.46953 44.3025 6.25003 43.75 6.25003H29.1666ZM41.6666 39.5834H8.33329V14.5834H25C25.2741 14.585 25.5459 14.5324 25.7998 14.4287C26.0536 14.325 26.2845 14.1723 26.4791 13.9792L30.0208 10.4167H41.6666V39.5834Z" fill="#A3A3A3"/>
</svg>
