<svg width="50" height="50" viewBox="0 0 50 50" fill="none" xmlns="http://www.w3.org/2000/svg">
<path d="M6.25 16.6663V41.6663C6.25 42.2189 6.46949 42.7488 6.86019 43.1395C7.25089 43.5302 7.7808 43.7497 8.33333 43.7497H18.75C19.3025 43.7497 19.8324 43.5302 20.2231 43.1395C20.6138 42.7488 20.8333 42.2189 20.8333 41.6663V27.083H29.1667V41.6663C29.1667 42.2189 29.3862 42.7488 29.7769 43.1395C30.1676 43.5302 30.6975 43.7497 31.25 43.7497H41.6667C42.2192 43.7497 42.7491 43.5302 43.1398 43.1395C43.5305 42.7488 43.75 42.2189 43.75 41.6663V16.6663C43.75 16.3429 43.6747 16.0239 43.5301 15.7346C43.3854 15.4454 43.1754 15.1937 42.9167 14.9997L26.25 2.49967C25.8894 2.22921 25.4508 2.08301 25 2.08301C24.5492 2.08301 24.1106 2.22921 23.75 2.49967L7.08333 14.9997C6.82459 15.1937 6.61458 15.4454 6.46994 15.7346C6.3253 16.0239 6.25 16.3429 6.25 16.6663ZM10.4167 17.708L25 6.77051L39.5833 17.708V39.583H33.3333V24.9997C33.3333 24.4471 33.1138 23.9172 32.7231 23.5265C32.3324 23.1358 31.8025 22.9163 31.25 22.9163H18.75C18.1975 22.9163 17.6676 23.1358 17.2769 23.5265C16.8862 23.9172 16.6667 24.4471 16.6667 24.9997V39.583H10.4167V17.708Z" fill="#A3A3A3"/>
</svg>
