<svg width="50" height="50" viewBox="0 0 50 50" fill="none" xmlns="http://www.w3.org/2000/svg">
<path d="M26.3543 4.66699C25.9769 4.34427 25.4967 4.16695 25.0001 4.16699H10.4168C9.86423 4.16699 9.33433 4.38649 8.94363 4.77719C8.55293 5.16789 8.33344 5.69779 8.33344 6.25033V43.7503C8.33344 44.3029 8.55293 44.8328 8.94363 45.2235C9.33433 45.6142 9.86423 45.8337 10.4168 45.8337H39.5834C40.136 45.8337 40.6659 45.6142 41.0566 45.2235C41.4473 44.8328 41.6668 44.3029 41.6668 43.7503V18.7503C41.6668 18.4494 41.6016 18.1521 41.4757 17.8787C41.3499 17.6054 41.1663 17.3626 40.9376 17.167L26.3543 4.66699ZM27.0834 10.7712L33.9584 16.667H27.0834V10.7712ZM37.5001 41.667H12.5001V8.33366H22.9168V18.7503C22.9168 19.3029 23.1363 19.8328 23.527 20.2235C23.9177 20.6142 24.4476 20.8337 25.0001 20.8337H37.5001V41.667Z" fill="#A3A3A3"/>
</svg>
