<svg width="50" height="50" viewBox="0 0 50 50" fill="none" xmlns="http://www.w3.org/2000/svg">
<path d="M8.33333 22.9167H20.8333C21.3859 22.9167 21.9158 22.6972 22.3065 22.3065C22.6972 21.9158 22.9167 21.3859 22.9167 20.8333V8.33333C22.9167 7.7808 22.6972 7.25089 22.3065 6.86019C21.9158 6.46949 21.3859 6.25 20.8333 6.25H8.33333C7.7808 6.25 7.25089 6.46949 6.86019 6.86019C6.46949 7.25089 6.25 7.7808 6.25 8.33333V20.8333C6.25 21.3859 6.46949 21.9158 6.86019 22.3065C7.25089 22.6972 7.7808 22.9167 8.33333 22.9167ZM10.4167 10.4167H18.75V18.75H10.4167V10.4167Z" fill="#A3A3A3"/>
<path d="M29.1673 22.9167H41.6673C42.2198 22.9167 42.7498 22.6972 43.1405 22.3065C43.5312 21.9158 43.7506 21.3859 43.7506 20.8333V8.33333C43.7506 7.7808 43.5312 7.25089 43.1405 6.86019C42.7498 6.46949 42.2198 6.25 41.6673 6.25H29.1673C28.6148 6.25 28.0849 6.46949 27.6942 6.86019C27.3035 7.25089 27.084 7.7808 27.084 8.33333V20.8333C27.084 21.3859 27.3035 21.9158 27.6942 22.3065C28.0849 22.6972 28.6148 22.9167 29.1673 22.9167ZM31.2506 10.4167H39.584V18.75H31.2506V10.4167Z" fill="#A3A3A3"/>
<path d="M8.33333 43.7497H20.8333C21.3859 43.7497 21.9158 43.5302 22.3065 43.1395C22.6972 42.7488 22.9167 42.2189 22.9167 41.6663V29.1663C22.9167 28.6138 22.6972 28.0839 22.3065 27.6932C21.9158 27.3025 21.3859 27.083 20.8333 27.083H8.33333C7.7808 27.083 7.25089 27.3025 6.86019 27.6932C6.46949 28.0839 6.25 28.6138 6.25 29.1663V41.6663C6.25 42.2189 6.46949 42.7488 6.86019 43.1395C7.25089 43.5302 7.7808 43.7497 8.33333 43.7497ZM10.4167 31.2497H18.75V39.583H10.4167V31.2497Z" fill="#A3A3A3"/>
<path d="M29.1673 43.7497H41.6673C42.2198 43.7497 42.7498 43.5302 43.1405 43.1395C43.5312 42.7488 43.7506 42.2189 43.7506 41.6663V29.1663C43.7506 28.6138 43.5312 28.0839 43.1405 27.6932C42.7498 27.3025 42.2198 27.083 41.6673 27.083H29.1673C28.6148 27.083 28.0849 27.3025 27.6942 27.6932C27.3035 28.0839 27.084 28.6138 27.084 29.1663V41.6663C27.084 42.2189 27.3035 42.7488 27.6942 43.1395C28.0849 43.5302 28.6148 43.7497 29.1673 43.7497ZM31.2506 31.2497H39.584V39.583H31.2506V31.2497Z" fill="#A3A3A3"/>
</svg>
