<svg width="50" height="50" viewBox="0 0 50 50" fill="none" xmlns="http://www.w3.org/2000/svg">
<path d="M6.24987 45.8334H14.5832C14.8574 45.835 15.1292 45.7824 15.383 45.6787C15.6368 45.5751 15.8677 45.4223 16.0624 45.2292L41.0624 20.2292C41.2576 20.0355 41.4126 19.8051 41.5184 19.5512C41.6242 19.2974 41.6786 19.0251 41.6786 18.75C41.6786 18.475 41.6242 18.2027 41.5184 17.9488C41.4126 17.695 41.2576 17.4645 41.0624 17.2709L32.729 8.93754C32.5354 8.74227 32.3049 8.58728 32.0511 8.48151C31.7972 8.37574 31.5249 8.32129 31.2499 8.32129C30.9748 8.32129 30.7025 8.37574 30.4487 8.48151C30.1948 8.58728 29.9644 8.74227 29.7707 8.93754L4.77071 33.9375C4.57762 34.1322 4.42486 34.3631 4.32118 34.6169C4.21751 34.8707 4.16495 35.1425 4.16654 35.4167V43.75C4.16654 44.3026 4.38603 44.8325 4.77673 45.2232C5.16743 45.6139 5.69734 45.8334 6.24987 45.8334ZM8.33321 36.2709L31.2499 13.3542L36.6457 18.75L13.729 41.6667H8.33321V36.2709Z" fill="#A3A3A3"/>
<path d="M36.896 4.77089C36.7018 4.57665 36.4712 4.42256 36.2174 4.31744C35.9636 4.21231 35.6916 4.1582 35.4169 4.1582C34.8621 4.1582 34.33 4.37859 33.9377 4.77089C33.5454 5.16319 33.325 5.69527 33.325 6.25006C33.325 6.80486 33.5454 7.33693 33.9377 7.72923L42.271 16.0626C42.4647 16.2578 42.6951 16.4128 42.949 16.5186C43.2029 16.6244 43.4752 16.6788 43.7502 16.6788C44.0252 16.6788 44.2975 16.6244 44.5514 16.5186C44.8053 16.4128 45.0357 16.2578 45.2294 16.0626C45.4246 15.8689 45.5796 15.6385 45.6854 15.3846C45.7912 15.1307 45.8456 14.8584 45.8456 14.5834C45.8456 14.3084 45.7912 14.0361 45.6854 13.7822C45.5796 13.5283 45.4246 13.2979 45.2294 13.1042L36.896 4.77089Z" fill="#A3A3A3"/>
</svg>
